<svg xmlns="http://www.w3.org/2000/svg" viewBox="0 0 24 24" aria-label="Apple">
  <path fill="#fff" d="M16.36 1.43c.08 1.08-.32 2.13-1.04 2.93-.73.81-1.92 1.43-2.94 1.35-.13-1.04.42-2.17 1.09-2.85.74-.78 2.03-1.37 2.89-1.43Zm3.55 16.74c-.58 1.34-.86 1.94-1.6 3.13-1.04 1.59-2.51 3.57-4.33 3.59-1.62.02-2.04-1.04-4.24-1.03-2.2.01-2.66 1.05-4.28 1.03-1.82-.02-3.2-1.8-4.24-3.39-2.9-4.43-3.2-9.63-1.42-12.39 1.26-1.96 3.25-3.11 5.12-3.11 1.9 0 3.09 1.04 4.66 1.04 1.52 0 2.45-1.04 4.64-1.04 1.66 0 3.42.91 4.67 2.47-4.1 2.25-3.44 8.1 1.02 9.7Z"/>
</svg>
