<svg xmlns="http://www.w3.org/2000/svg" viewBox="0 0 64 64" role="img" aria-label="AfriSell">
  <rect width="64" height="64" rx="16" fill="#020302"/>
  <rect x="8" y="8" width="48" height="48" rx="13" fill="none" stroke="#15EA3E" stroke-width="4"/>
  <path d="M48 12c-8-5-22-5-32 0" fill="none" stroke="#15EA3E" stroke-width="3" stroke-linecap="round"/>
  <path d="M45 17c-7-4-18-4-26 0" fill="none" stroke="#FFFFFF" stroke-width="2.6" stroke-linecap="round"/>
  <path
    d="M37.5 45.5c-2.4 1.4-5.2 2.1-8.1 1.7-7.6-1-13-8-12-15.6 1-7.6 8-13 15.6-12 5.6.7 10.2 4.8 11.6 10.1h-8.2c-1.1-1.8-2.9-3.1-5.2-3.4-3.9-.5-7.6 2.3-8.1 6.2-.5 4 2.3 7.6 6.2 8.1 2.3.3 4.4-.5 5.9-2h-5.8v-6.1h15.7c.6 5.6-2.1 10.4-7.6 13Z"
    fill="#FFFFFF"
  />
  <circle cx="33" cy="33" r="5" fill="#15EA3E"/>
  <circle cx="33" cy="33" r="1.9" fill="#020302"/>
</svg>
